<?xml version="1.0" encoding="utf-8"?>
<!-- Generator: Adobe Illustrator 18.1.1, SVG Export Plug-In . SVG Version: 6.00 Build 0)  -->
<svg version="1.1" id="Layer_1" xmlns="http://www.w3.org/2000/svg" xmlns:xlink="http://www.w3.org/1999/xlink" x="0px" y="0px"
	 viewBox="0 0 291.742 13.368" enable-background="new 0 0 291.742 13.368" xml:space="preserve">
<g>
	<path fill="#FFFFFF" d="M4.176,13.008c0.304-0.032,0.492-0.084,0.564-0.156c0.072-0.072,0.108-0.164,0.108-0.276V3.6H0.72
		c-0.128,0-0.224,0.044-0.288,0.132S0.32,4,0.288,4.272H0V0h0.288c0.032,0.272,0.08,0.452,0.144,0.54s0.16,0.132,0.288,0.132h11.856
		c0.128,0,0.224-0.044,0.288-0.132c0.063-0.088,0.112-0.268,0.144-0.54h0.288v4.272h-0.288C12.976,4,12.928,3.82,12.864,3.732
		C12.8,3.644,12.704,3.6,12.576,3.6H8.448v8.976c0,0.112,0.036,0.204,0.108,0.276c0.072,0.072,0.26,0.124,0.564,0.156v0.288H4.176
		V13.008z"/>
	<path fill="#FFFFFF" d="M30.048,12.576c0,0.112,0.036,0.204,0.108,0.276c0.072,0.072,0.26,0.124,0.564,0.156v0.288h-4.944v-0.288
		c0.304-0.032,0.492-0.084,0.564-0.156c0.072-0.072,0.108-0.164,0.108-0.276v-4.44h-6.24v4.44c0,0.112,0.036,0.204,0.108,0.276
		c0.072,0.072,0.26,0.124,0.564,0.156v0.288h-4.944v-0.288c0.304-0.032,0.492-0.084,0.564-0.156
		c0.072-0.072,0.108-0.164,0.108-0.276V1.392c0-0.112-0.036-0.204-0.108-0.276c-0.072-0.072-0.26-0.124-0.564-0.156V0.672h4.944
		V0.96c-0.304,0.032-0.492,0.084-0.564,0.156c-0.072,0.072-0.108,0.165-0.108,0.276v3.816h6.24V1.392
		c0-0.112-0.036-0.204-0.108-0.276c-0.072-0.072-0.26-0.124-0.564-0.156V0.672h4.944V0.96c-0.304,0.032-0.492,0.084-0.564,0.156
		c-0.072,0.072-0.108,0.165-0.108,0.276V12.576z"/>
	<path fill="#FFFFFF" d="M41.328,0.528c1.024,0,1.988,0.14,2.892,0.42c0.904,0.28,1.696,0.692,2.376,1.236
		c0.68,0.544,1.22,1.216,1.62,2.016c0.4,0.8,0.6,1.728,0.6,2.784s-0.2,1.984-0.6,2.784c-0.4,0.8-0.94,1.472-1.62,2.016
		c-0.68,0.544-1.472,0.944-2.376,1.2c-0.904,0.256-1.868,0.384-2.892,0.384c-1.024,0-1.988-0.127-2.892-0.384
		c-0.904-0.256-1.696-0.656-2.376-1.2c-0.68-0.543-1.22-1.215-1.62-2.016c-0.4-0.8-0.6-1.728-0.6-2.784S34.04,5,34.44,4.2
		c0.4-0.8,0.94-1.472,1.62-2.016c0.68-0.544,1.472-0.956,2.376-1.236C39.34,0.668,40.304,0.528,41.328,0.528z M41.328,3.456
		c-0.528,0-1.028,0.08-1.5,0.24c-0.472,0.16-0.888,0.388-1.248,0.684c-0.36,0.296-0.648,0.664-0.864,1.104
		c-0.216,0.44-0.324,0.94-0.324,1.5s0.108,1.06,0.324,1.5c0.216,0.44,0.504,0.808,0.864,1.104c0.36,0.296,0.776,0.524,1.248,0.684
		c0.472,0.16,0.972,0.24,1.5,0.24s1.028-0.08,1.5-0.24c0.472-0.16,0.888-0.388,1.248-0.684c0.36-0.296,0.648-0.664,0.864-1.104
		c0.216-0.44,0.324-0.94,0.324-1.5s-0.108-1.06-0.324-1.5c-0.216-0.44-0.504-0.808-0.864-1.104c-0.36-0.296-0.776-0.524-1.248-0.684
		C42.356,3.536,41.856,3.456,41.328,3.456z"/>
	<path fill="#FFFFFF" d="M63.312,13.008c0.304-0.032,0.492-0.084,0.564-0.156c0.072-0.072,0.108-0.164,0.108-0.276V3.744
		l-0.048-0.048l-4.272,9.312L55.44,3.6h-0.048v8.976c0,0.112,0.036,0.204,0.108,0.276c0.072,0.072,0.26,0.124,0.564,0.156v0.288
		H51.84v-0.288c0.304-0.032,0.492-0.084,0.564-0.156c0.072-0.072,0.108-0.164,0.108-0.276V1.392c0-0.112-0.036-0.204-0.108-0.276
		c-0.072-0.072-0.26-0.124-0.564-0.156V0.672h6.264V0.96c-0.384,0.016-0.576,0.16-0.576,0.432c0,0.016,0.048,0.144,0.144,0.384
		c0.096,0.24,0.22,0.536,0.372,0.888c0.152,0.352,0.32,0.732,0.504,1.14c0.184,0.408,0.36,0.8,0.528,1.176s0.316,0.708,0.444,0.996
		c0.128,0.288,0.216,0.48,0.264,0.576c0.272-0.608,0.552-1.2,0.84-1.776c0.288-0.576,0.548-1.104,0.78-1.584
		c0.231-0.48,0.42-0.88,0.564-1.2c0.144-0.32,0.216-0.52,0.216-0.6c0-0.272-0.192-0.416-0.576-0.432V0.672h6.504V0.96
		c-0.304,0.032-0.492,0.084-0.564,0.156C67.476,1.188,67.44,1.28,67.44,1.392v11.184c0,0.112,0.036,0.204,0.108,0.276
		c0.072,0.072,0.26,0.124,0.564,0.156v0.288h-4.8V13.008z"/>
	<path fill="#FFFFFF" d="M74.783,12.768c0,0.08,0.028,0.14,0.084,0.18c0.056,0.04,0.172,0.06,0.348,0.06v0.288h-4.248v-0.288
		c0.176-0.032,0.304-0.084,0.384-0.156c0.08-0.072,0.16-0.204,0.24-0.396c0.032-0.08,0.112-0.296,0.24-0.648
		c0.128-0.352,0.296-0.796,0.504-1.332c0.208-0.536,0.44-1.132,0.696-1.788c0.256-0.656,0.512-1.324,0.768-2.004
		s0.508-1.344,0.756-1.992s0.468-1.228,0.66-1.74c0.192-0.512,0.348-0.928,0.468-1.248c0.12-0.32,0.18-0.488,0.18-0.504
		c0-0.08-0.052-0.136-0.156-0.168C75.603,1,75.495,0.976,75.383,0.96V0.672h6.264V0.96C81.519,0.976,81.415,1,81.335,1.032
		c-0.08,0.032-0.12,0.112-0.12,0.24c0,0.032,0.076,0.24,0.228,0.624c0.152,0.384,0.348,0.884,0.588,1.5
		c0.24,0.616,0.516,1.312,0.828,2.088c0.312,0.776,0.636,1.568,0.972,2.376c0.336,0.808,0.66,1.596,0.972,2.364
		c0.312,0.768,0.596,1.456,0.852,2.064c0.128,0.288,0.236,0.48,0.324,0.576c0.088,0.096,0.204,0.144,0.348,0.144v0.288H81.6v-0.288
		c0.304-0.016,0.456-0.112,0.456-0.288c0-0.016-0.04-0.124-0.12-0.324c-0.081-0.2-0.168-0.424-0.264-0.672s-0.188-0.484-0.276-0.708
		c-0.088-0.224-0.14-0.376-0.156-0.456h-5.688c-0.16,0.432-0.288,0.784-0.384,1.056c-0.096,0.272-0.172,0.488-0.228,0.648
		c-0.056,0.16-0.096,0.276-0.12,0.348C74.795,12.684,74.783,12.736,74.783,12.768z M80.615,8.64l-2.328-5.712L76.151,8.64H80.615z"
		/>
	<path fill="#FFFFFF" d="M90.311,8.424c-0.032,0.096-0.048,0.264-0.048,0.504c0,0.16,0.147,0.34,0.444,0.54
		c0.296,0.2,0.68,0.388,1.152,0.564c0.472,0.176,1.012,0.324,1.62,0.444c0.608,0.12,1.224,0.18,1.848,0.18
		c1.2,0,2.08-0.14,2.64-0.42c0.56-0.28,0.84-0.684,0.84-1.212c0-0.288-0.244-0.492-0.732-0.612c-0.488-0.12-1.101-0.216-1.836-0.288
		c-0.736-0.072-1.528-0.152-2.376-0.24c-0.848-0.087-1.64-0.248-2.376-0.48c-0.736-0.231-1.348-0.568-1.836-1.008
		c-0.488-0.44-0.732-1.044-0.732-1.812c0-0.608,0.14-1.16,0.42-1.656c0.28-0.496,0.672-0.92,1.176-1.272
		c0.504-0.352,1.116-0.627,1.836-0.828c0.72-0.2,1.52-0.3,2.4-0.3c0.816,0,1.576,0.052,2.28,0.156
		c0.704,0.104,1.328,0.22,1.872,0.348c0.544,0.128,1,0.244,1.368,0.348c0.368,0.104,0.632,0.156,0.792,0.156
		c0.16,0,0.288-0.036,0.384-0.108c0.096-0.072,0.184-0.156,0.264-0.252l0.264,0.096l-1.656,3.336l-0.288-0.144V4.2
		c0-0.144-0.156-0.292-0.468-0.444c-0.312-0.152-0.708-0.288-1.188-0.408c-0.48-0.12-1.016-0.22-1.608-0.3
		c-0.592-0.08-1.168-0.12-1.728-0.12c-1.04,0-1.768,0.12-2.184,0.36c-0.416,0.24-0.624,0.496-0.624,0.768
		c0,0.272,0.144,0.477,0.432,0.612c0.288,0.136,0.664,0.236,1.128,0.3c0.464,0.064,0.992,0.116,1.584,0.156
		c0.592,0.04,1.2,0.1,1.824,0.18c0.624,0.081,1.232,0.192,1.824,0.336c0.592,0.144,1.12,0.356,1.584,0.636
		c0.464,0.28,0.84,0.648,1.128,1.104c0.288,0.456,0.432,1.028,0.432,1.716c0,0.528-0.108,1.048-0.324,1.56
		c-0.216,0.512-0.584,0.972-1.104,1.38c-0.521,0.408-1.216,0.732-2.088,0.972c-0.872,0.24-1.956,0.36-3.252,0.36
		c-1.008,0-1.876-0.048-2.604-0.144c-0.728-0.096-1.348-0.212-1.86-0.348c-0.512-0.136-0.916-0.26-1.212-0.372
		c-0.296-0.112-0.516-0.168-0.66-0.168c-0.096,0-0.18,0.032-0.252,0.096s-0.148,0.136-0.228,0.216l-0.288-0.072l1.776-4.272
		L90.311,8.424z"/>
	<path fill="#FFFFFF" d="M125.735,0.672V0.96c-0.128,0-0.236,0.044-0.324,0.132c-0.088,0.088-0.172,0.188-0.252,0.3l-4.608,6.504
		v4.68c0,0.112,0.036,0.204,0.108,0.276c0.072,0.072,0.26,0.124,0.564,0.156v0.288h-4.944v-0.288
		c0.304-0.032,0.492-0.084,0.564-0.156c0.072-0.072,0.108-0.164,0.108-0.276V8.352l-4.584-6.576
		c-0.256-0.368-0.424-0.596-0.504-0.684c-0.081-0.088-0.176-0.132-0.288-0.132V0.672h5.28V0.96c-0.144,0-0.28,0.016-0.408,0.048
		c-0.128,0.032-0.192,0.112-0.192,0.24c0,0.064,0.104,0.256,0.312,0.576c0.208,0.32,0.452,0.688,0.732,1.104
		c0.28,0.417,0.572,0.84,0.876,1.272c0.304,0.432,0.552,0.8,0.744,1.104c0.048-0.08,0.152-0.228,0.312-0.444s0.34-0.468,0.54-0.756
		s0.416-0.592,0.648-0.912c0.232-0.32,0.44-0.616,0.624-0.888c0.184-0.271,0.34-0.507,0.468-0.708
		c0.128-0.2,0.192-0.315,0.192-0.348c0-0.128-0.06-0.208-0.18-0.24c-0.12-0.032-0.236-0.048-0.348-0.048V0.672H125.735z"/>
	<path fill="#FFFFFF" d="M135.311,0.528c1.024,0,1.988,0.14,2.892,0.42c0.904,0.28,1.696,0.692,2.376,1.236
		c0.68,0.544,1.22,1.216,1.62,2.016c0.4,0.8,0.6,1.728,0.6,2.784s-0.2,1.984-0.6,2.784c-0.4,0.8-0.94,1.472-1.62,2.016
		c-0.68,0.544-1.472,0.944-2.376,1.2c-0.904,0.256-1.868,0.384-2.892,0.384c-1.024,0-1.988-0.127-2.892-0.384
		c-0.904-0.256-1.696-0.656-2.376-1.2c-0.68-0.543-1.22-1.215-1.62-2.016c-0.4-0.8-0.6-1.728-0.6-2.784s0.2-1.984,0.6-2.784
		c0.4-0.8,0.94-1.472,1.62-2.016c0.68-0.544,1.472-0.956,2.376-1.236C133.322,0.668,134.286,0.528,135.311,0.528z M135.311,3.456
		c-0.528,0-1.028,0.08-1.5,0.24c-0.472,0.16-0.888,0.388-1.248,0.684c-0.36,0.296-0.648,0.664-0.864,1.104
		c-0.216,0.44-0.324,0.94-0.324,1.5s0.108,1.06,0.324,1.5c0.216,0.44,0.504,0.808,0.864,1.104c0.36,0.296,0.776,0.524,1.248,0.684
		c0.472,0.16,0.972,0.24,1.5,0.24s1.028-0.08,1.5-0.24c0.472-0.16,0.888-0.388,1.248-0.684c0.36-0.296,0.648-0.664,0.864-1.104
		c0.216-0.44,0.324-0.94,0.324-1.5s-0.108-1.06-0.324-1.5c-0.216-0.44-0.504-0.808-0.864-1.104c-0.36-0.296-0.776-0.524-1.248-0.684
		C136.338,3.536,135.838,3.456,135.311,3.456z"/>
	<path fill="#FFFFFF" d="M156.335,1.392c0-0.112-0.037-0.204-0.109-0.276c-0.072-0.072-0.26-0.124-0.562-0.156V0.672h4.943V0.96
		c-0.305,0.032-0.492,0.084-0.564,0.156c-0.072,0.072-0.107,0.165-0.107,0.276v6.432c0,1.056-0.172,1.944-0.516,2.664
		c-0.346,0.72-0.816,1.296-1.416,1.728c-0.602,0.432-1.305,0.732-2.113,0.9s-1.668,0.252-2.58,0.252s-1.771-0.084-2.58-0.252
		c-0.808-0.168-1.511-0.468-2.111-0.9s-1.072-1.008-1.416-1.728c-0.344-0.72-0.516-1.608-0.516-2.664V1.392
		c0-0.112-0.036-0.204-0.108-0.276c-0.072-0.072-0.26-0.124-0.564-0.156V0.672h4.944V0.96c-0.305,0.032-0.492,0.084-0.564,0.156
		c-0.071,0.072-0.107,0.165-0.107,0.276v6.432c0,0.928,0.264,1.592,0.791,1.992c0.529,0.4,1.273,0.6,2.232,0.6
		c0.961,0,1.705-0.2,2.232-0.6s0.793-1.064,0.793-1.992V1.392z"/>
	<path fill="#FFFFFF" d="M165.263,1.392c0-0.112-0.036-0.204-0.108-0.276c-0.072-0.072-0.26-0.124-0.563-0.156V0.672h5.783V0.96
		c-0.271,0.016-0.452,0.052-0.539,0.108c-0.089,0.056-0.133,0.124-0.133,0.204c0,0.032,0.104,0.176,0.312,0.432
		s0.479,0.576,0.815,0.96c0.336,0.384,0.716,0.812,1.141,1.284c0.424,0.472,0.852,0.944,1.284,1.416
		c0.432,0.472,0.848,0.92,1.248,1.344c0.399,0.424,0.743,0.788,1.031,1.092V1.392c0-0.272-0.168-0.416-0.504-0.432V0.672h4.393V0.96
		c-0.305,0.032-0.492,0.084-0.564,0.156c-0.072,0.072-0.108,0.165-0.108,0.276v11.184c0,0.112,0.036,0.204,0.108,0.276
		c0.072,0.072,0.26,0.124,0.564,0.156v0.288h-4.561v-0.288c0.224,0,0.372-0.024,0.444-0.072c0.072-0.048,0.107-0.112,0.107-0.192
		c0-0.048-0.023-0.108-0.071-0.18c-0.048-0.072-0.152-0.196-0.312-0.372c-0.16-0.176-0.396-0.428-0.708-0.756
		c-0.312-0.328-0.724-0.768-1.235-1.32c-0.513-0.552-1.145-1.24-1.896-2.064c-0.752-0.824-1.656-1.828-2.712-3.012v7.536
		c0,0.112,0.036,0.204,0.108,0.276c0.071,0.072,0.26,0.124,0.563,0.156v0.288h-4.56v-0.288c0.304-0.032,0.491-0.084,0.563-0.156
		c0.072-0.072,0.108-0.164,0.108-0.276V1.392z"/>
	<path fill="#FFFFFF" d="M190.75,8.712c-0.128,0-0.216,0.044-0.264,0.132c-0.048,0.088-0.08,0.204-0.096,0.348h-0.288v-3.36h0.288
		c0.031,0.288,0.151,0.432,0.359,0.432h7.08v0.288c-0.256,0.016-0.384,0.152-0.384,0.408v3.984c0,0.112,0.016,0.208,0.048,0.288
		s0.112,0.12,0.24,0.12h0.12v0.288c-2.176,1.152-4.752,1.728-7.729,1.728c-1.008,0-1.979-0.124-2.916-0.372
		c-0.936-0.248-1.764-0.636-2.483-1.164c-0.72-0.528-1.301-1.196-1.74-2.004c-0.44-0.808-0.66-1.756-0.66-2.844
		c0-1.088,0.22-2.036,0.66-2.844c0.439-0.808,1.021-1.48,1.74-2.016s1.548-0.936,2.483-1.2c0.937-0.264,1.908-0.396,2.916-0.396
		c0.4,0,0.752,0.008,1.057,0.024c0.304,0.016,0.6,0.048,0.888,0.096s0.584,0.108,0.888,0.18c0.304,0.072,0.664,0.164,1.08,0.276
		c0.4,0.112,0.769,0.244,1.104,0.396c0.336,0.152,0.552,0.228,0.647,0.228c0.128,0,0.24-0.064,0.336-0.192l0.288,0.096l-1.56,3.168
		l-0.288-0.168c0.032-0.096,0.048-0.184,0.048-0.264c0-0.111-0.136-0.236-0.408-0.372c-0.271-0.136-0.616-0.26-1.031-0.372
		c-0.417-0.112-0.885-0.208-1.404-0.288c-0.521-0.08-1.028-0.12-1.524-0.12c-0.576,0-1.124,0.076-1.644,0.228
		c-0.521,0.152-0.984,0.388-1.393,0.708c-0.407,0.32-0.731,0.716-0.972,1.188c-0.24,0.472-0.36,1.036-0.36,1.692
		c0,0.64,0.145,1.196,0.433,1.668c0.288,0.472,0.651,0.86,1.092,1.164c0.439,0.304,0.932,0.528,1.476,0.672
		c0.544,0.144,1.08,0.216,1.608,0.216c0.672,0,1.275-0.04,1.812-0.12c0.535-0.08,1.052-0.192,1.548-0.336V8.712H190.75z"/>
	<path fill="#FFFFFF" d="M215.397,8.712c-0.128,0-0.216,0.044-0.264,0.132c-0.048,0.088-0.08,0.204-0.096,0.348h-0.288v-3.36h0.288
		c0.031,0.288,0.151,0.432,0.359,0.432h7.08v0.288c-0.256,0.016-0.384,0.152-0.384,0.408v3.984c0,0.112,0.016,0.208,0.048,0.288
		s0.112,0.12,0.24,0.12h0.12v0.288c-2.176,1.152-4.752,1.728-7.729,1.728c-1.008,0-1.979-0.124-2.916-0.372
		c-0.936-0.248-1.764-0.636-2.483-1.164c-0.72-0.528-1.301-1.196-1.74-2.004c-0.44-0.808-0.66-1.756-0.66-2.844
		c0-1.088,0.22-2.036,0.66-2.844c0.439-0.808,1.021-1.48,1.74-2.016s1.548-0.936,2.483-1.2c0.937-0.264,1.908-0.396,2.916-0.396
		c0.4,0,0.752,0.008,1.057,0.024c0.304,0.016,0.6,0.048,0.888,0.096s0.584,0.108,0.888,0.18c0.304,0.072,0.664,0.164,1.08,0.276
		c0.4,0.112,0.769,0.244,1.104,0.396c0.336,0.152,0.552,0.228,0.647,0.228c0.128,0,0.24-0.064,0.336-0.192l0.288,0.096l-1.56,3.168
		l-0.288-0.168c0.032-0.096,0.048-0.184,0.048-0.264c0-0.111-0.136-0.236-0.408-0.372c-0.271-0.136-0.616-0.26-1.031-0.372
		c-0.417-0.112-0.885-0.208-1.404-0.288c-0.521-0.08-1.028-0.12-1.524-0.12c-0.576,0-1.124,0.076-1.644,0.228
		c-0.521,0.152-0.984,0.388-1.393,0.708c-0.407,0.32-0.731,0.716-0.972,1.188c-0.24,0.472-0.36,1.036-0.36,1.692
		c0,0.64,0.145,1.196,0.433,1.668c0.288,0.472,0.651,0.86,1.092,1.164c0.439,0.304,0.932,0.528,1.476,0.672
		c0.544,0.144,1.08,0.216,1.608,0.216c0.672,0,1.275-0.04,1.812-0.12c0.535-0.08,1.052-0.192,1.548-0.336V8.712H215.397z"/>
	<path fill="#FFFFFF" d="M229.51,12.576c0,0.112,0.036,0.204,0.108,0.276c0.072,0.072,0.26,0.124,0.563,0.156v0.288h-4.943v-0.288
		c0.304-0.032,0.491-0.084,0.563-0.156c0.072-0.072,0.108-0.164,0.108-0.276V1.392c0-0.112-0.036-0.204-0.108-0.276
		c-0.072-0.072-0.26-0.124-0.563-0.156V0.672h8.783c1.776,0,3.064,0.324,3.864,0.972s1.2,1.652,1.2,3.012
		c0,1.104-0.324,1.968-0.972,2.592c-0.648,0.624-1.469,1.072-2.46,1.344l2.832,3.984c0.191,0.288,0.424,0.432,0.695,0.432v0.288
		h-4.991v-0.288c0.352-0.016,0.527-0.16,0.527-0.432c0-0.032-0.063-0.144-0.191-0.336c-0.129-0.192-0.288-0.424-0.48-0.696
		s-0.404-0.564-0.636-0.876c-0.232-0.312-0.456-0.612-0.672-0.9c-0.217-0.288-0.404-0.544-0.564-0.768s-0.264-0.376-0.312-0.456
		h-2.353V12.576z M233.542,6c0.704,0,1.188-0.132,1.452-0.396c0.264-0.264,0.396-0.572,0.396-0.924c0-0.352-0.132-0.66-0.396-0.924
		c-0.265-0.264-0.748-0.396-1.452-0.396h-4.032V6H233.542z"/>
	<path fill="#FFFFFF" d="M249.286,0.528c1.023,0,1.988,0.14,2.892,0.42c0.904,0.28,1.696,0.692,2.376,1.236
		c0.681,0.544,1.221,1.216,1.62,2.016c0.4,0.8,0.601,1.728,0.601,2.784s-0.2,1.984-0.601,2.784c-0.399,0.8-0.939,1.472-1.62,2.016
		c-0.68,0.544-1.472,0.944-2.376,1.2c-0.903,0.256-1.868,0.384-2.892,0.384c-1.024,0-1.988-0.127-2.892-0.384
		c-0.904-0.256-1.696-0.656-2.376-1.2c-0.681-0.543-1.221-1.215-1.62-2.016c-0.4-0.8-0.601-1.728-0.601-2.784s0.2-1.984,0.601-2.784
		c0.399-0.8,0.939-1.472,1.62-2.016c0.68-0.544,1.472-0.956,2.376-1.236C247.298,0.668,248.262,0.528,249.286,0.528z M249.286,3.456
		c-0.528,0-1.028,0.08-1.5,0.24c-0.473,0.16-0.888,0.388-1.248,0.684c-0.36,0.296-0.648,0.664-0.864,1.104
		c-0.216,0.44-0.324,0.94-0.324,1.5s0.108,1.06,0.324,1.5c0.216,0.44,0.504,0.808,0.864,1.104c0.36,0.296,0.775,0.524,1.248,0.684
		c0.472,0.16,0.972,0.24,1.5,0.24s1.027-0.08,1.5-0.24c0.472-0.16,0.888-0.388,1.248-0.684c0.36-0.296,0.647-0.664,0.864-1.104
		c0.216-0.44,0.323-0.94,0.323-1.5s-0.107-1.06-0.323-1.5c-0.217-0.44-0.504-0.808-0.864-1.104c-0.36-0.296-0.776-0.524-1.248-0.684
		C250.313,3.536,249.814,3.456,249.286,3.456z"/>
	<path fill="#FFFFFF" d="M270.311,1.392c0-0.112-0.036-0.204-0.108-0.276c-0.072-0.072-0.26-0.124-0.563-0.156V0.672h4.943V0.96
		c-0.304,0.032-0.492,0.084-0.563,0.156c-0.072,0.072-0.108,0.165-0.108,0.276v6.432c0,1.056-0.172,1.944-0.516,2.664
		c-0.345,0.72-0.816,1.296-1.416,1.728c-0.601,0.432-1.305,0.732-2.112,0.9c-0.809,0.168-1.668,0.252-2.58,0.252
		s-1.772-0.084-2.58-0.252s-1.512-0.468-2.112-0.9c-0.6-0.432-1.071-1.008-1.416-1.728c-0.344-0.72-0.516-1.608-0.516-2.664V1.392
		c0-0.112-0.036-0.204-0.108-0.276c-0.071-0.072-0.26-0.124-0.563-0.156V0.672h4.944V0.96c-0.305,0.032-0.492,0.084-0.564,0.156
		c-0.072,0.072-0.108,0.165-0.108,0.276v6.432c0,0.928,0.265,1.592,0.792,1.992c0.528,0.4,1.272,0.6,2.232,0.6s1.704-0.2,2.232-0.6
		c0.527-0.4,0.792-1.064,0.792-1.992V1.392z"/>
	<path fill="#FFFFFF" d="M282.838,12.576c0,0.112,0.036,0.204,0.108,0.276c0.072,0.072,0.26,0.124,0.563,0.156v0.288h-4.943v-0.288
		c0.304-0.032,0.491-0.084,0.563-0.156c0.072-0.072,0.108-0.164,0.108-0.276V1.392c0-0.112-0.036-0.204-0.108-0.276
		c-0.072-0.072-0.26-0.124-0.563-0.156V0.672h8.592c0.752,0,1.416,0.108,1.992,0.324c0.575,0.216,1.056,0.508,1.439,0.876
		s0.672,0.796,0.864,1.284c0.192,0.488,0.288,0.996,0.288,1.524c0,0.528-0.096,1.036-0.288,1.524s-0.48,0.912-0.864,1.272
		c-0.384,0.36-0.864,0.648-1.439,0.864c-0.576,0.216-1.24,0.324-1.992,0.324h-4.32V12.576z M286.486,6.12
		c0.672,0,1.164-0.112,1.476-0.336c0.312-0.224,0.468-0.591,0.468-1.104c0-0.464-0.155-0.8-0.468-1.008
		c-0.312-0.208-0.804-0.312-1.476-0.312h-3.648v2.76H286.486z"/>
</g>
</svg>
